<svg width="880" height="846" viewBox="0 0 880 846" fill="none" xmlns="http://www.w3.org/2000/svg">
<g filter="url(#filter0_f_24_598)">
<path d="M458.5 8H44L8 46V169L30 186V549L17 564V795.5L60 837.5H244L254.5 827.5H708L721 837.5H818.5L872 782.5V710L858 691V182L872 165V65L845 37H486.5L458.5 8Z" fill="#0F1D2C"/>
<path d="M458.5 8H44L8 46V169L30 186V549L17 564V795.5L60 837.5H244L254.5 827.5H708L721 837.5H818.5L872 782.5V710L858 691V182L872 165V65L845 37H486.5L458.5 8Z" stroke="#2A2A4A" stroke-width="6"/>
<path d="M458.5 8H44L8 46V169L30 186V549L17 564V795.5L60 837.5H244L254.5 827.5H708L721 837.5H818.5L872 782.5V710L858 691V182L872 165V65L845 37H486.5L458.5 8Z" stroke="url(#paint0_linear_24_598)" stroke-width="6"/>
<path d="M458.5 8H44L8 46V169L30 186V549L17 564V795.5L60 837.5H244L254.5 827.5H708L721 837.5H818.5L872 782.5V710L858 691V182L872 165V65L845 37H486.5L458.5 8Z" stroke="url(#paint1_linear_24_598)" stroke-width="6"/>
</g>
<path d="M458.5 8H44L8 46V169L30 186V549L17 564V795.5L60 837.5H244L254.5 827.5H708L721 837.5H818.5L872 782.5V710L858 691V182L872 165V65L845 37H486.5L458.5 8Z" stroke="white" stroke-opacity="0.37" stroke-width="5"/>
<path d="M33 776V549L16 561.5V794.5L56.5 835H244L252.5 826.5H708L718.5 838.5H818L875 780.5V711.5L853.5 690.5V739L779.5 815H265L258 810H66L33 776Z" fill="#01101D" stroke="#00FAF6"/>
<g filter="url(#filter1_f_24_598)">
<path d="M58 43L32 68.5V149.5H848V113V84L828.5 62.5H415.5L397.5 43H58Z" stroke="#01FDF8" stroke-width="7"/>
</g>
<path d="M58 43L32 68.5V149.5H848V113V84L828.5 62.5H415.5L397.5 43H58Z" stroke="#A0FFFD" stroke-width="5"/>
<path d="M44 175L68 150H836V741.5L769.5 806.5H319L306 794.5H81L44 754.5V175Z" stroke="#01FDF8"/>
<path d="M639 113H681L721 71M721 71H743.5V135.5H656L595 71H467L393 141.5H834.5L827.5 135.5L839.5 119V89L821.5 69H721V71Z" stroke="#00FAF6" stroke-opacity="0.8"/>
<path d="M744.5 69.5V141.5H835L828 135.5L839.5 119V89.5L821.5 69.5H744.5Z" stroke="#01FDF8"/>
<line x1="636" y1="112.5" x2="681" y2="112.5" stroke="#00FAF6" stroke-width="3"/>
<line x1="679.914" y1="112.966" x2="719.914" y2="70.9655" stroke="#00FAF6" stroke-width="3"/>
<defs>
<filter id="filter0_f_24_598" x="0" y="0" width="880" height="845.5" filterUnits="userSpaceOnUse" color-interpolation-filters="sRGB">
<feFlood flood-opacity="0" result="BackgroundImageFix"/>
<feBlend mode="normal" in="SourceGraphic" in2="BackgroundImageFix" result="shape"/>
<feGaussianBlur stdDeviation="2.5" result="effect1_foregroundBlur_24_598"/>
</filter>
<filter id="filter1_f_24_598" x="24.5" y="35.5" width="831" height="121.5" filterUnits="userSpaceOnUse" color-interpolation-filters="sRGB">
<feFlood flood-opacity="0" result="BackgroundImageFix"/>
<feBlend mode="normal" in="SourceGraphic" in2="BackgroundImageFix" result="shape"/>
<feGaussianBlur stdDeviation="2" result="effect1_foregroundBlur_24_598"/>
</filter>
<linearGradient id="paint0_linear_24_598" x1="25.5" y1="423" x2="872" y2="786" gradientUnits="userSpaceOnUse">
<stop stop-color="#CB3DC6" stop-opacity="0"/>
<stop offset="1" stop-color="#CB3DC6"/>
</linearGradient>
<linearGradient id="paint1_linear_24_598" x1="863" y1="433" x2="21.5" y2="751" gradientUnits="userSpaceOnUse">
<stop stop-color="#00FAF6" stop-opacity="0"/>
<stop offset="1" stop-color="#00FAF6"/>
</linearGradient>
</defs>
</svg>
